<mxfile host="app.diagrams.net" modified="2024-05-20T12:38:40.428Z" agent="Mozilla/5.0 (Macintosh; Intel Mac OS X 10_15_7) AppleWebKit/605.1.15 (KHTML, like Gecko) Version/17.1.2 Safari/605.1.15" version="24.4.4" etag="6j7n5DVg0K8YCq6XlbC_" type="github">
  <diagram name="Page-1" id="aMBING1bwo7BpPH5Optn">
    <mxGraphModel>
      <root>
        <mxCell id="0" />
        <mxCell id="1" parent="0" />
      </root>
    </mxGraphModel>
  </diagram>
</mxfile>
